<svg id="visual" viewBox="0 0 960 540" width="960" height="540" xmlns="http://www.w3.org/2000/svg" xmlns:xlink="http://www.w3.org/1999/xlink" version="1.1"><path d="M0 443L26.7 434.5C53.3 426 106.7 409 160 400.8C213.3 392.7 266.7 393.3 320 408.3C373.3 423.3 426.7 452.7 480 455.7C533.3 458.7 586.7 435.3 640 435.5C693.3 435.7 746.7 459.3 800 461.8C853.3 464.3 906.7 445.7 933.3 436.3L960 427L960 541L933.3 541C906.7 541 853.3 541 800 541C746.7 541 693.3 541 640 541C586.7 541 533.3 541 480 541C426.7 541 373.3 541 320 541C266.7 541 213.3 541 160 541C106.7 541 53.3 541 26.7 541L0 541Z" fill="#8D5CF6" stroke-linecap="round" stroke-linejoin="miter"></path></svg>